<svg width="60" height="60" viewBox="0 0 60 60" fill="none" xmlns="http://www.w3.org/2000/svg">
<circle cx="30" cy="30" r="30" fill="url(#paint0_linear_136_4)"/>
<path d="M21.9961 22.0508H23.0508C25.9258 22.0508 27.6406 23.0234 28.1953 24.9688C28.3828 25.6094 28.4766 26.3438 28.4766 27.1719V38H21.9961V22.0508ZM13.4883 22.0508H19.793V38H13.4883V22.0508ZM39.2109 22.0508H46.4414V30.0781L39.2109 22.0508ZM31.5586 26.7617H31.4883C31.4883 25.1523 31.9258 23.9648 32.8008 23.1992C33.6758 22.4336 35.0234 22.0508 36.8438 22.0508L46.4414 33.6992C46.4414 35.2461 46.0234 36.3516 45.1875 37.0156C44.375 37.6641 43.0469 37.9883 41.2031 37.9883L31.5586 26.7617ZM31.5234 29.9258L38.4844 38H31.5234V29.9258Z" fill="white"/>
<defs>
<linearGradient id="paint0_linear_136_4" x1="52" y1="8" x2="-14.5" y2="74.5" gradientUnits="userSpaceOnUse">
<stop stop-color="#0088FF"/>
<stop offset="1"/>
</linearGradient>
</defs>
</svg>
